<?xml version="1.0" encoding="UTF-8"?>
<svg width="34px" height="34px" viewBox="0 0 34 34" version="1.1" xmlns="http://www.w3.org/2000/svg" xmlns:xlink="http://www.w3.org/1999/xlink">
    <title>Circle </title>
    <g id="Landing-page" stroke="none" stroke-width="1" fill="none" fill-rule="evenodd">
        <g transform="translate(-1156.000000, -1632.000000)" fill="#B0BEC5" id="Palette">
            <g transform="translate(0.000000, 679.000000)">
                <g id="Colors-palette" transform="translate(0.000000, 746.000000)">
                    <g id="View-options" transform="translate(1071.000000, 207.000000)">
                        <g id="Circle-view-icon" transform="translate(85.000000, 0.000000)">
                            <path d="M12.58,14.45 L20.74,0.34 C19.55,0.17 18.19,0 17,0 C12.92,0 9.18,1.36 6.29,3.91 L12.58,14.62 L12.58,14.45 L12.58,14.45 Z M33.15,11.9 C31.62,6.97 27.88,2.89 22.95,1.19 L16.83,11.9 L33.15,11.9 L33.15,11.9 Z M33.66,13.6 L20.91,13.6 L21.42,14.45 L29.58,28.56 C32.3,25.5 34,21.42 34,17 C34,15.81 33.83,14.62 33.66,13.6 L33.66,13.6 Z M11.05,17 L4.42,5.44 C1.7,8.5 0,12.58 0,17 C0,18.19 0.17,19.38 0.34,20.4 L13.09,20.4 L11.05,17 L11.05,17 Z M0.85,22.1 C2.38,27.03 6.12,31.11 11.05,32.81 L17.34,22.1 L0.85,22.1 L0.85,22.1 Z M19.89,22.1 L13.26,33.66 C14.45,34 15.64,34 17,34 C21.08,34 24.82,32.64 27.71,30.09 L21.42,19.38 L19.89,22.1 L19.89,22.1 Z" id="Circle-"></path>
                        </g>
                    </g>
                </g>
            </g>
        </g>
    </g>
</svg>