<?xml version="1.0" encoding="UTF-8"?>
<svg width="139px" height="144px" viewBox="0 0 139 144" version="1.1" xmlns="http://www.w3.org/2000/svg" xmlns:xlink="http://www.w3.org/1999/xlink">
    <title>Logo icon</title>
    <defs>
        <filter x="-7.0%" y="-7.0%" width="114.1%" height="114.1%" filterUnits="objectBoundingBox" id="filter-1">
            <feGaussianBlur stdDeviation="2.80473288" in="SourceGraphic"></feGaussianBlur>
        </filter>
        <linearGradient x1="50%" y1="0%" x2="50%" y2="100%" id="linearGradient-2">
            <stop stop-color="#FFFFFF" offset="0%"></stop>
            <stop stop-color="#ECEFF1" stop-opacity="0" offset="100%"></stop>
        </linearGradient>
        <path d="M130,65 C130,29.1014913 100.898509,1.99276755e-15 65,0 C47.0834525,-9.94568176e-16 65.8666667,31.5385417 50.6627604,48.2692708 C35.4588542,65 0,47.0180387 0,65 C0,100.898509 29.1014913,130 65,130 C100.898509,130 130,100.898509 130,65 Z" id="path-3"></path>
        <path d="M72.7672956,12.672956 C72.7672956,5.67387566 67.0934199,-2.51620745e-15 60.0943396,-2.90473445e-15 C53.0952593,-3.29326146e-15 47.4213836,5.67387566 47.4213836,12.672956 C47.4213836,19.6720363 53.0952593,25.3459119 60.0943396,25.3459119 C67.0934199,25.3459119 72.7672956,19.6720363 72.7672956,12.672956 Z" id="path-4"></path>
        <filter x="-11.8%" y="-11.8%" width="123.7%" height="123.7%" filterUnits="objectBoundingBox" id="filter-5">
            <feGaussianBlur stdDeviation="2" in="SourceAlpha" result="shadowBlurInner1"></feGaussianBlur>
            <feOffset dx="0" dy="2" in="shadowBlurInner1" result="shadowOffsetInner1"></feOffset>
            <feComposite in="shadowOffsetInner1" in2="SourceAlpha" operator="arithmetic" k2="-1" k3="1" result="shadowInnerInner1"></feComposite>
            <feColorMatrix values="0 0 0 0 0   0 0 0 0 0   0 0 0 0 0  0 0 0 0.45142663 0" type="matrix" in="shadowInnerInner1"></feColorMatrix>
        </filter>
        <path d="M89.9371069,50.6918239 C89.9371069,44.8216275 85.1783725,40.0628931 79.3081761,40.0628931 C73.4379797,40.0628931 68.6792453,44.8216275 68.6792453,50.6918239 C68.6792453,56.5620203 73.4379797,61.3207547 79.3081761,61.3207547 C85.1783725,61.3207547 89.9371069,56.5620203 89.9371069,50.6918239 Z" id="path-6"></path>
        <filter x="-14.1%" y="-14.1%" width="128.2%" height="128.2%" filterUnits="objectBoundingBox" id="filter-7">
            <feGaussianBlur stdDeviation="2" in="SourceAlpha" result="shadowBlurInner1"></feGaussianBlur>
            <feOffset dx="0" dy="2" in="shadowBlurInner1" result="shadowOffsetInner1"></feOffset>
            <feComposite in="shadowOffsetInner1" in2="SourceAlpha" operator="arithmetic" k2="-1" k3="1" result="shadowInnerInner1"></feComposite>
            <feColorMatrix values="0 0 0 0 0   0 0 0 0 0   0 0 0 0 0  0 0 0 0.451709692 0" type="matrix" in="shadowInnerInner1"></feColorMatrix>
        </filter>
        <path d="M63.7735849,81.7610063 C63.7735849,75.8908099 59.0148505,71.1320755 53.1446541,71.1320755 C47.2744577,71.1320755 42.5157233,75.8908099 42.5157233,81.7610063 C42.5157233,87.6312027 47.2744577,92.3899371 53.1446541,92.3899371 C59.0148505,92.3899371 63.7735849,87.6312027 63.7735849,81.7610063 Z" id="path-8"></path>
        <filter x="-14.1%" y="-14.1%" width="128.2%" height="128.2%" filterUnits="objectBoundingBox" id="filter-9">
            <feGaussianBlur stdDeviation="2" in="SourceAlpha" result="shadowBlurInner1"></feGaussianBlur>
            <feOffset dx="0" dy="2" in="shadowBlurInner1" result="shadowOffsetInner1"></feOffset>
            <feComposite in="shadowOffsetInner1" in2="SourceAlpha" operator="arithmetic" k2="-1" k3="1" result="shadowInnerInner1"></feComposite>
            <feColorMatrix values="0 0 0 0 0   0 0 0 0 0   0 0 0 0 0  0 0 0 0.447293931 0" type="matrix" in="shadowInnerInner1"></feColorMatrix>
        </filter>
        <path d="M25.3459119,69.9056604 C25.3459119,62.9065801 19.6720363,57.2327044 12.672956,57.2327044 C5.67387566,57.2327044 0,62.9065801 0,69.9056604 C0,76.9047407 5.67387566,82.5786164 12.672956,82.5786164 C19.6720363,82.5786164 25.3459119,76.9047407 25.3459119,69.9056604 Z" id="path-10"></path>
        <filter x="-11.8%" y="-11.8%" width="123.7%" height="123.7%" filterUnits="objectBoundingBox" id="filter-11">
            <feGaussianBlur stdDeviation="2" in="SourceAlpha" result="shadowBlurInner1"></feGaussianBlur>
            <feOffset dx="0" dy="2" in="shadowBlurInner1" result="shadowOffsetInner1"></feOffset>
            <feComposite in="shadowOffsetInner1" in2="SourceAlpha" operator="arithmetic" k2="-1" k3="1" result="shadowInnerInner1"></feComposite>
            <feColorMatrix values="0 0 0 0 0   0 0 0 0 0   0 0 0 0 0  0 0 0 0.445369112 0" type="matrix" in="shadowInnerInner1"></feColorMatrix>
        </filter>
        <linearGradient x1="100%" y1="50%" x2="-16.2836627%" y2="50%" id="linearGradient-12">
            <stop stop-color="#FFFFFF" stop-opacity="0" offset="0%"></stop>
            <stop stop-color="#000000" stop-opacity="0.647192029" offset="100%"></stop>
        </linearGradient>
        <polygon id="path-13" points="2.67837779 -2.32378756e-14 13.0530989 -2.32378756e-14 13.0530989 8.24779347 2.67837779 8.24779347"></polygon>
        <filter x="-57.8%" y="-60.6%" width="196.4%" height="221.2%" filterUnits="objectBoundingBox" id="filter-14">
            <feOffset dx="-1" dy="0" in="SourceAlpha" result="shadowOffsetOuter1"></feOffset>
            <feGaussianBlur stdDeviation="1.5" in="shadowOffsetOuter1" result="shadowBlurOuter1"></feGaussianBlur>
            <feColorMatrix values="0 0 0 0 0   0 0 0 0 0   0 0 0 0 0  0 0 0 0.252236187 0" type="matrix" in="shadowBlurOuter1"></feColorMatrix>
        </filter>
        <path d="M5.2485764,17.6379186 C6.77233545,20.7185046 3.17491072,24.2532618 5.24857632,24.2532618 C9.00739389,24.2532618 14.9989156,18.3670439 14.9989156,14.5711018 C14.9989156,13.1187337 13.0307252,7.69794057 13.0307252,7.69794057 L8.30297116,7.69794057 L2.7146182,7.69794057 C2.7146182,7.69794057 0.865469917,9.33292986 0.554919481,11.1128997 C0.323469403,12.439493 0.734505721,12.9514502 1.60702668,14.5711018 C2.45012934,16.1361445 3.72481736,14.5573326 5.2485764,17.6379186 Z" id="path-15"></path>
        <filter x="-41.4%" y="-30.2%" width="168.9%" height="160.4%" filterUnits="objectBoundingBox" id="filter-16">
            <feOffset dx="-1" dy="0" in="SourceAlpha" result="shadowOffsetOuter1"></feOffset>
            <feGaussianBlur stdDeviation="1.5" in="shadowOffsetOuter1" result="shadowBlurOuter1"></feGaussianBlur>
            <feColorMatrix values="0 0 0 0 0   0 0 0 0 0   0 0 0 0 0  0 0 0 0.245952219 0" type="matrix" in="shadowBlurOuter1"></feColorMatrix>
        </filter>
        <linearGradient x1="89.660058%" y1="50%" x2="19.2595604%" y2="50%" id="linearGradient-17">
            <stop stop-color="#FFFFFF" stop-opacity="0" offset="0%"></stop>
            <stop stop-color="#644E46" stop-opacity="0.5" offset="100%"></stop>
        </linearGradient>
        <path d="M7.85023001,0.753227751 L7.93090499,0.763567564 C9.45093495,0.984145247 10.6323369,2.24673066 10.696097,3.85733764 L13.0717165,63.8664269 L2.59267169,63.8664269 C2.59267169,63.8664269 2.50582093,63.4932427 2.37391024,62.8425329 L2.30998103,62.5228476 C1.78652338,59.8697399 0.758125121,53.7814534 1.19968279,48.7784899 C1.45014933,45.9406387 2.16413525,37.3066673 2.89670262,28.3859577 L3.05015091,26.5165163 C3.97065551,15.2971967 4.87150867,4.23185786 4.87150867,4.23185786 C5.00124306,2.63981641 6.23159923,1.2262716 7.75077896,0.780870254 L7.85023001,0.753227751 Z M7.7672956,4.79157525 L7.65622478,4.79753248 C7.14590072,4.85265159 6.75417008,5.28348878 6.75417008,5.80680493 L6.75417008,5.80680493 L6.75417008,7.88341008 C6.75417008,8.44341973 7.20776183,8.89863975 7.7672956,8.89863975 L7.7672956,8.89863975 L7.87836642,8.89268252 C8.38869048,8.83756342 8.78042111,8.40672622 8.78042111,7.88341008 L8.78042111,7.88341008 L8.78042111,5.80680493 C8.78042111,5.24679528 8.32682937,4.79157525 7.7672956,4.79157525 L7.7672956,4.79157525 Z" id="path-18"></path>
        <filter x="-50.1%" y="-7.8%" width="183.5%" height="115.7%" filterUnits="objectBoundingBox" id="filter-19">
            <feOffset dx="-1" dy="0" in="SourceAlpha" result="shadowOffsetOuter1"></feOffset>
            <feGaussianBlur stdDeviation="1.5" in="shadowOffsetOuter1" result="shadowBlurOuter1"></feGaussianBlur>
            <feColorMatrix values="0 0 0 0 0   0 0 0 0 0   0 0 0 0 0  0 0 0 0.253651495 0" type="matrix" in="shadowBlurOuter1"></feColorMatrix>
        </filter>
        <filter x="-50.1%" y="-7.8%" width="183.5%" height="115.7%" filterUnits="objectBoundingBox" id="filter-20">
            <feGaussianBlur stdDeviation="1.5" in="SourceAlpha" result="shadowBlurInner1"></feGaussianBlur>
            <feOffset dx="1" dy="0" in="shadowBlurInner1" result="shadowOffsetInner1"></feOffset>
            <feComposite in="shadowOffsetInner1" in2="SourceAlpha" operator="arithmetic" k2="-1" k3="1" result="shadowInnerInner1"></feComposite>
            <feColorMatrix values="0 0 0 0 0   0 0 0 0 0   0 0 0 0 0  0 0 0 0.449020607 0" type="matrix" in="shadowInnerInner1"></feColorMatrix>
        </filter>
    </defs>
    <g id="Landing-page" stroke="none" stroke-width="1" fill="none" fill-rule="evenodd">
        <g transform="translate(-648.000000, -237.000000)" id="Featured-area">
            <g id="Text-slider" transform="translate(394.000000, 239.000000)">
                <g id="Icon" transform="translate(261.000000, 0.000000)">
                    <g id="Color-palette">
                        <g id="Board-background">
                            <path d="M121.415094,73.1761006 C121.415094,40.2126901 94.6929703,13.490566 61.7295597,13.490566 C45.2778872,13.490566 62.5253669,42.4504848 48.5645473,57.8132927 C34.6037277,73.1761006 2.04402516,56.6643626 2.04402516,73.1761006 C2.04402516,106.139511 28.7661492,132.861635 61.7295597,132.861635 C94.6929703,132.861635 121.415094,106.139511 121.415094,73.1761006 Z" id="Shadow" fill-opacity="0.25537817" fill="#000000" filter="url(#filter-1)"></path>
                            <g id="Board">
                                <use fill="#ECEFF1" xlink:href="#path-3"></use>
                                <path stroke-opacity="0.05" stroke="#000000" stroke-width="2" d="M65,-1 C83.2253967,-1 99.7253967,6.38730163 111.669048,18.3309524 C123.612698,30.2746033 131,46.7746033 131,65 C131,83.2253967 123.612698,99.7253967 111.669048,111.669048 C99.7253967,123.612698 83.2253967,131 65,131 C46.7746033,131 30.2746033,123.612698 18.3309524,111.669048 C6.38730163,99.7253967 -1,83.2253967 -1,65 C-1,62.8901978 -0.544140194,61.231519 0.2564064,59.9196547 C1.13715777,58.476358 2.44121607,57.4372001 4.09829993,56.7096606 C7.90482744,55.038412 13.6973776,55.0780542 20.1209297,55.1725075 C20.721372,55.1813365 21.3277993,55.1906994 21.9389231,55.1989384 L22.8589701,55.2102469 C32.5530664,55.3157833 43.2523731,54.936912 49.9226916,47.5967397 C57.1462757,39.6477411 56.3971687,28.2497703 55.8596233,18.6994765 C55.5182146,12.6338445 55.2711559,7.26538612 56.8070342,3.74856459 C57.4854723,2.19509152 58.4932059,0.975479002 59.9348967,0.15348661 C61.2231174,-0.581003526 62.8753601,-1 65,-1 Z" fill-opacity="0.700000048" fill="url(#linearGradient-2)"></path>
                            </g>
                        </g>
                        <g id="Colors" transform="translate(25.345912, 18.805031)">
                            <g id="Color-green">
                                <use fill="#4CAF50" fill-rule="evenodd" xlink:href="#path-4"></use>
                                <use fill="black" fill-opacity="1" filter="url(#filter-5)" xlink:href="#path-4"></use>
                            </g>
                            <g id="Color-blue">
                                <use fill="#2196F3" fill-rule="evenodd" xlink:href="#path-6"></use>
                                <use fill="black" fill-opacity="1" filter="url(#filter-7)" xlink:href="#path-6"></use>
                            </g>
                            <g id="Color-orange">
                                <use fill="#FF9800" fill-rule="evenodd" xlink:href="#path-8"></use>
                                <use fill="black" fill-opacity="1" filter="url(#filter-9)" xlink:href="#path-8"></use>
                            </g>
                            <g id="Color-red">
                                <use fill="#F44336" fill-rule="evenodd" xlink:href="#path-10"></use>
                                <use fill="black" fill-opacity="1" filter="url(#filter-11)" xlink:href="#path-10"></use>
                            </g>
                        </g>
                    </g>
                    <g id="Brush" transform="translate(46.194969, 44.150943) rotate(-45.000000) translate(-46.194969, -44.150943) translate(38.427673, 0.000000)">
                        <g id="Tip" transform="translate(0.000000, 63.558506)">
                            <g id="Tip-holder">
                                <use fill="black" fill-opacity="1" filter="url(#filter-14)" xlink:href="#path-13"></use>
                                <use fill="#B0BEC5" fill-rule="evenodd" xlink:href="#path-13"></use>
                                <use fill="url(#linearGradient-12)" fill-rule="evenodd" xlink:href="#path-13"></use>
                            </g>
                            <g id="Front-tip">
                                <use fill="black" fill-opacity="1" filter="url(#filter-16)" xlink:href="#path-15"></use>
                                <use fill="#E0E0E0" fill-rule="evenodd" xlink:href="#path-15"></use>
                            </g>
                        </g>
                        <g id="Stick">
                            <use fill="black" fill-opacity="1" filter="url(#filter-19)" xlink:href="#path-18"></use>
                            <use fill="#8D6E63" fill-rule="evenodd" xlink:href="#path-18"></use>
                            <use fill="url(#linearGradient-17)" fill-rule="evenodd" xlink:href="#path-18"></use>
                            <use fill="black" fill-opacity="1" filter="url(#filter-20)" xlink:href="#path-18"></use>
                        </g>
                    </g>
                </g>
            </g>
        </g>
    </g>
</svg>