<?xml version="1.0" encoding="UTF-8"?>
<svg width="28px" height="29px" viewBox="0 0 28 29" version="1.1" xmlns="http://www.w3.org/2000/svg" xmlns:xlink="http://www.w3.org/1999/xlink">
    <title>Block</title>
    <g id="Landing-page" stroke="none" stroke-width="1" fill="none" fill-rule="evenodd" fill-opacity="0.251726676" opacity="0.849999964">
        <g transform="translate(-970.000000, -2310.000000)" fill="#FBFBFB" id="Palette">
            <g transform="translate(0.000000, 679.000000)">
                <g id="Colors-palette" transform="translate(0.000000, 746.000000)">
                    <g id="Palette" transform="translate(251.000000, 120.000000)">
                        <g id="Primary-colors" transform="translate(142.000000, 237.000000)">
                            <g id="Black" transform="translate(524.879747, 467.268293)">
                                <g id="No-color-icon" transform="translate(52.350211, 61.662971)">
                                    <path d="M13.7763713,0 C6.19936709,0 0,6.16629712 0,13.7028825 C0,21.2394678 6.19936709,27.405765 13.7763713,27.405765 C21.3533755,27.405765 27.5527426,21.2394678 27.5527426,13.7028825 C27.5527426,6.16629712 21.3533755,0 13.7763713,0 L13.7763713,0 Z M2.75527426,13.7028825 C2.75527426,7.67361419 7.71476793,2.7405765 13.7763713,2.7405765 C16.2561181,2.7405765 18.5981013,3.56274945 20.5267932,5.07006652 L5.09725738,20.4172949 C3.58185654,18.4988914 2.75527426,16.1694013 2.75527426,13.7028825 L2.75527426,13.7028825 Z M13.7763713,24.6651885 C11.2966245,24.6651885 8.95464135,23.8430155 7.02594937,22.3356984 L22.4554852,6.98847007 C23.9708861,8.90687361 24.7974684,11.2363636 24.7974684,13.7028825 C24.7974684,19.7321508 19.8379747,24.6651885 13.7763713,24.6651885 L13.7763713,24.6651885 Z" id="Block"></path>
                                </g>
                            </g>
                        </g>
                    </g>
                </g>
            </g>
        </g>
    </g>
</svg>