<?xml version="1.0" encoding="UTF-8"?>
<svg width="20px" height="20px" viewBox="0 0 20 20" version="1.1" xmlns="http://www.w3.org/2000/svg" xmlns:xlink="http://www.w3.org/1999/xlink">
    <title>Download</title>
    <g id="Landing-page" stroke="none" stroke-width="1" fill="none" fill-rule="evenodd" fill-opacity="0.495187953">
        <g transform="translate(-529.000000, -3399.000000)" fill="#374046" id="Download">
            <g transform="translate(0.000000, 2904.000000)">
                <g id="Content" transform="translate(286.000000, 145.000000)">
                    <g id="Section-content" transform="translate(100.000000, 108.000000)">
                        <g id="Template-donwloads" transform="translate(69.000000, 158.000000)">
                            <g id="Icon" transform="translate(74.171958, 84.000000)">
                                <path d="M19.2330109,13.3994 C19.0140349,13.1628 18.7479502,13.0445778 18.4350449,13.0445778 L12.9887364,13.0445778 L11.3925163,14.7681333 C10.9387173,15.2411778 10.4065479,15.4777778 9.7962963,15.4777778 C9.18604466,15.4777778 8.65387527,15.2413333 8.20007625,14.7681333 L6.61552533,13.0445778 L1.15769172,13.0445778 C0.844786492,13.0445778 0.578701797,13.1629556 0.359581699,13.3994 C0.140461601,13.6358444 0.0309735839,13.9231556 0.0309735839,14.2611778 L0.0309735839,18.3166667 C0.0309735839,18.6546889 0.140461601,18.942 0.359581699,19.1784444 C0.578701797,19.4148889 0.844786492,19.5332667 1.15769172,19.5332667 L18.4350449,19.5332667 C18.7479502,19.5332667 19.0141789,19.4148889 19.2330109,19.1784444 C19.452131,18.9418444 19.561619,18.6546889 19.561619,18.3166667 L19.561619,14.2611778 C19.561619,13.9231556 19.452131,13.6358444 19.2330109,13.3994 L19.2330109,13.3994 Z M14.8317367,17.6703333 C14.6829194,17.8308667 14.5067301,17.9111333 14.3033129,17.9111333 C14.0998957,17.9111333 13.9239946,17.8308667 13.7751773,17.6703333 C13.6266481,17.5098 13.5523115,17.3197111 13.5523115,17.1000667 C13.5523115,16.8805778 13.6266481,16.6901778 13.7751773,16.5298 C13.9239946,16.3692667 14.0998957,16.2888444 14.3033129,16.2888444 C14.5067301,16.2888444 14.6829194,16.3692667 14.8317367,16.5298 C14.9802658,16.6901778 15.0546024,16.8805778 15.0546024,17.1000667 C15.0546024,17.3197111 14.9802658,17.5096444 14.8317367,17.6703333 L14.8317367,17.6703333 Z M17.3081827,16.2888444 C17.5115999,16.2888444 17.6877892,16.3692667 17.8363184,16.5298 C17.9849916,16.6901778 18.0594722,16.8805778 18.0594722,17.1000667 C18.0593282,17.3197111 17.9851356,17.5096444 17.8363184,17.6703333 C17.6877892,17.8308667 17.5115999,17.9111333 17.3081827,17.9111333 C17.1047655,17.9111333 16.9287203,17.8308667 16.7800471,17.6703333 C16.631518,17.5098 16.5571814,17.3197111 16.5571814,17.1000667 C16.5571814,16.8805778 16.631518,16.6901778 16.7800471,16.5298 C16.9287203,16.3692667 17.1047655,16.2888444 17.3081827,16.2888444 Z M11.2988753,0.0665777778 C11.5021484,0.0665777778 11.6781936,0.146844444 11.8270109,0.307377778 C11.975396,0.467911111 12.0498766,0.658 12.0498766,0.877644444 L12.0498766,0.877644444 L12.0498766,6.55542222 L15.0546024,6.55542222 C15.3833546,6.55557778 15.6142879,6.72031111 15.7471141,7.04977778 C15.8800844,7.3962 15.8253404,7.69191111 15.582738,7.93691111 L15.582738,7.93691111 L10.3244319,13.6146889 C10.1835381,13.7750667 10.007637,13.8553333 9.7962963,13.8553333 C9.58509967,13.8553333 9.40905447,13.7750667 9.26816068,13.6146889 L9.26816068,13.6146889 L4.00985458,7.93691111 C3.76725218,7.69191111 3.71250817,7.39604444 3.84547849,7.04977778 C3.9784488,6.72031111 4.20923802,6.55542222 4.5379902,6.55542222 L4.5379902,6.55542222 L7.54271596,6.55542222 L7.54271596,0.877644444 C7.54271596,0.658 7.61705256,0.467911111 7.76572576,0.307377778 C7.91439897,0.146844444 8.09044417,0.0665777778 8.29386138,0.0665777778 L8.29386138,0.0665777778 Z" id="Download"></path>
                            </g>
                        </g>
                    </g>
                </g>
            </g>
        </g>
    </g>
</svg>